<?xml version="1.0" encoding="UTF-8" standalone="no"?>
<!DOCTYPE svg PUBLIC "-//W3C//DTD SVG 1.1//EN"
 "http://www.w3.org/Graphics/SVG/1.1/DTD/svg11.dtd">
<!-- Generated by graphviz version 2.47.0 (20210316.0004)
 -->
<!-- Title: dependencies Pages: 1 -->
<svg width="504pt" height="284pt"
 viewBox="0.00 0.00 504.00 284.00" xmlns="http://www.w3.org/2000/svg" xmlns:xlink="http://www.w3.org/1999/xlink">
<g id="graph0" class="graph" transform="scale(1 1) rotate(0) translate(4 280)">
<title>dependencies</title>
<polygon fill="white" stroke="transparent" points="-4,4 -4,-280 500,-280 500,4 -4,4"/>
<text text-anchor="start" x="227.01" y="-42.4" font-family="Times-12" font-weight="bold" font-size="14.00">Legend</text>
<polygon fill="#ffffb3" stroke="transparent" points="14,-10 14,-30 34,-30 34,-10 14,-10"/>
<text text-anchor="start" x="37.63" y="-15.4" font-family="Times-12" font-size="14.00"> &#160;Declarations</text>
<polygon fill="#8dd3c7" stroke="transparent" points="127,-10 127,-30 147,-30 147,-10 127,-10"/>
<text text-anchor="start" x="150.73" y="-15.4" font-family="Times-12" font-size="14.00"> &#160;Module</text>
<polygon fill="#80b1d3" stroke="transparent" points="213,-10 213,-30 233,-30 233,-10 213,-10"/>
<text text-anchor="start" x="236.78" y="-15.4" font-family="Times-12" font-size="14.00"> &#160;Bootstrap</text>
<polygon fill="#fdb462" stroke="transparent" points="310,-10 310,-30 330,-30 330,-10 310,-10"/>
<text text-anchor="start" x="333.67" y="-15.4" font-family="Times-12" font-size="14.00"> &#160;Providers</text>
<polygon fill="#fb8072" stroke="transparent" points="406,-10 406,-30 426,-30 426,-10 406,-10"/>
<text text-anchor="start" x="429.73" y="-15.4" font-family="Times-12" font-size="14.00"> &#160;Exports</text>
<g id="clust1" class="cluster">
<title>cluster_AscSharedLibsModule</title>
<polygon fill="none" stroke="black" stroke-dasharray="1,5" points="66,-70 66,-268 430,-268 430,-70 66,-70"/>
</g>
<g id="clust2" class="cluster">
<title>cluster_AscSharedLibsModule_declarations</title>
<polygon fill="none" stroke="black" points="78,-78 78,-130 419,-130 419,-78 78,-78"/>
</g>
<g id="clust6" class="cluster">
<title>cluster_AscSharedLibsModule_exports</title>
<polygon fill="none" stroke="black" points="74,-208 74,-260 422,-260 422,-208 74,-208"/>
</g>
<!-- AscSharedLibsComponent -->
<g id="node1" class="node">
<title>AscSharedLibsComponent</title>
<polygon fill="#ffffb3" stroke="black" points="411.36,-122 244.64,-122 244.64,-86 411.36,-86 411.36,-122"/>
<text text-anchor="middle" x="328" y="-99.8" font-family="Times,serif" font-size="14.00">AscSharedLibsComponent</text>
</g>
<!-- AscSharedLibsModule -->
<g id="node3" class="node">
<title>AscSharedLibsModule</title>
<polygon fill="#8dd3c7" stroke="black" points="229.58,-187 226.58,-191 205.58,-191 202.58,-187 84.42,-187 84.42,-151 229.58,-151 229.58,-187"/>
<text text-anchor="middle" x="157" y="-164.8" font-family="Times,serif" font-size="14.00">AscSharedLibsModule</text>
</g>
<!-- AscSharedLibsComponent&#45;&gt;AscSharedLibsModule -->
<g id="edge1" class="edge">
<title>AscSharedLibsComponent&#45;&gt;AscSharedLibsModule</title>
<path fill="none" stroke="black" d="M355.81,-122.02C355.81,-139.37 355.81,-163 355.81,-163 355.81,-163 239.62,-163 239.62,-163"/>
<polygon fill="black" stroke="black" points="239.62,-159.5 229.62,-163 239.62,-166.5 239.62,-159.5"/>
</g>
<!-- BaseTableComponent -->
<g id="node2" class="node">
<title>BaseTableComponent</title>
<polygon fill="#ffffb3" stroke="black" points="226.42,-122 85.58,-122 85.58,-86 226.42,-86 226.42,-122"/>
<text text-anchor="middle" x="156" y="-99.8" font-family="Times,serif" font-size="14.00">BaseTableComponent</text>
</g>
<!-- BaseTableComponent&#45;&gt;AscSharedLibsModule -->
<g id="edge2" class="edge">
<title>BaseTableComponent&#45;&gt;AscSharedLibsModule</title>
<path fill="none" stroke="black" d="M156,-122.11C156,-122.11 156,-140.99 156,-140.99"/>
<polygon fill="black" stroke="black" points="152.5,-140.99 156,-150.99 159.5,-140.99 152.5,-140.99"/>
</g>
<!-- AscSharedLibsComponent  -->
<g id="node4" class="node">
<title>AscSharedLibsComponent </title>
<polygon fill="#fb8072" stroke="black" points="414.36,-252 243.64,-252 243.64,-216 414.36,-216 414.36,-252"/>
<text text-anchor="middle" x="329" y="-229.8" font-family="Times,serif" font-size="14.00">AscSharedLibsComponent </text>
</g>
<!-- AscSharedLibsModule&#45;&gt;AscSharedLibsComponent  -->
<g id="edge3" class="edge">
<title>AscSharedLibsModule&#45;&gt;AscSharedLibsComponent </title>
<path fill="none" stroke="black" stroke-dasharray="5,2" d="M229.85,-175C265.23,-175 300.19,-175 300.19,-175 300.19,-175 300.19,-205.98 300.19,-205.98"/>
<polygon fill="black" stroke="black" points="296.69,-205.98 300.19,-215.98 303.69,-205.98 296.69,-205.98"/>
</g>
<!-- BaseTableComponent  -->
<g id="node5" class="node">
<title>BaseTableComponent </title>
<polygon fill="#fb8072" stroke="black" points="225.92,-252 82.08,-252 82.08,-216 225.92,-216 225.92,-252"/>
<text text-anchor="middle" x="154" y="-229.8" font-family="Times,serif" font-size="14.00">BaseTableComponent </text>
</g>
<!-- AscSharedLibsModule&#45;&gt;BaseTableComponent  -->
<g id="edge4" class="edge">
<title>AscSharedLibsModule&#45;&gt;BaseTableComponent </title>
<path fill="none" stroke="black" stroke-dasharray="5,2" d="M155.21,-187.11C155.21,-187.11 155.21,-205.99 155.21,-205.99"/>
<polygon fill="black" stroke="black" points="151.71,-205.99 155.21,-215.99 158.71,-205.99 151.71,-205.99"/>
</g>
</g>
</svg>
